<?xml version="1.0" encoding="UTF-8"?>
<svg version="1.1" xmlns="http://www.w3.org/2000/svg" width="512" height="512">
<path d="M0 0 C0.76779785 0.1129541 1.5355957 0.2259082 2.32666016 0.34228516 C23.46036524 3.62369811 44.33858286 10.54876863 63 21 C64.73830078 21.91845703 64.73830078 21.91845703 66.51171875 22.85546875 C79.07733076 29.68001726 90.44372452 38.31286298 100.8984375 48.05078125 C102.77927667 49.79527706 104.70618031 51.43467568 106.6875 53.0625 C110.5505301 56.37111374 113.76337618 60.08551723 117 64 C117.43473633 64.5170752 117.86947266 65.03415039 118.31738281 65.56689453 C126.12126809 74.87600379 132.89553926 84.50022219 139 95 C139.53318848 95.90371338 139.53318848 95.90371338 140.07714844 96.82568359 C165.23563012 139.8785783 170.47963561 193.90246531 158.03930664 241.74267578 C157.37957996 244.16802101 156.69776781 246.58533656 156 249 C155.77973145 249.7626416 155.55946289 250.5252832 155.33251953 251.31103516 C149.43881401 271.21780667 140.28069247 290.44970252 127.3125 306.75 C124.73861421 309.61313196 124.73861421 309.61313196 125.20068359 312.01245117 C126.55728912 315.38573328 129.12103972 317.75700543 131.625 320.3125 C132.13417969 320.87517578 132.64335937 321.43785156 133.16796875 322.01757812 C134.71644995 323.60292793 136.08807573 324.87642323 138 326 C141.64083702 326.06562137 141.64083702 326.06562137 145 325 C154.6455156 322.4327525 165.32738234 323.27225294 174.08967209 328.16742325 C180.34398949 332.2414942 185.49731506 337.05942398 190.75488281 342.33496094 C191.68450836 343.25611694 192.61413391 344.17727295 193.57192993 345.12634277 C196.09947915 347.63185073 198.61748267 350.14673985 201.13308048 352.66424084 C203.24274058 354.77402139 205.35674101 356.87942768 207.47060847 358.98499131 C212.46074961 363.95596278 217.44274953 368.93499168 222.41992188 373.91894531 C227.53668321 379.04234999 232.66803311 384.15080615 237.8066113 389.252321 C242.23625754 393.651185 246.65608788 398.05974956 251.06842685 402.47597337 C253.69587171 405.10547607 256.32686537 407.73114933 258.96762848 410.34728241 C261.91357862 413.26665363 264.83881041 416.20599053 267.76269531 419.14746094 C269.06102798 420.42589874 269.06102798 420.42589874 270.3855896 421.73016357 C279.68996653 431.16463978 283.32478443 439.91613859 283.31030273 453.12988281 C283.04866316 464.9508447 277.88088355 472.58926417 270 481 C269.46487793 481.57218262 268.92975586 482.14436523 268.37841797 482.73388672 C258.13904287 493.55836896 248.20981455 504.00127093 232.609375 505.27734375 C219.61332412 505.6289685 211.30545761 502.69184564 201.79552841 493.98069 C199.35617155 491.62912372 196.95267772 489.24578644 194.55810547 486.84863281 C193.19555634 485.49615952 193.19555634 485.49615952 191.80548096 484.11636353 C189.33385466 481.66226802 186.86861911 479.20185144 184.40510321 476.73961735 C182.86101792 475.19696113 181.31551396 473.65574088 179.76950455 472.11501312 C174.36293332 466.7268966 168.96150336 461.33368793 163.56494141 455.93554688 C158.55485386 450.92425788 153.53371589 445.92423464 148.50726783 440.92936063 C144.17374102 436.6220767 139.84805377 432.30702325 135.52826607 427.98596072 C132.95620995 425.41339749 130.38122443 422.84395552 127.79827499 420.28232574 C124.91519893 417.42240436 122.04860962 414.54647279 119.18310547 411.66894531 C118.33827606 410.83535492 117.49344666 410.00176453 116.62301636 409.14291382 C108.17765711 400.60760234 101.77516527 391.55472525 101.7265625 379.13671875 C101.73429687 378.47285156 101.74203125 377.80898438 101.75 377.125 C101.74484375 375.80757813 101.7396875 374.49015625 101.734375 373.1328125 C101.79887283 369.97431572 102.47544732 367.46106863 103.4453125 364.46484375 C104.12678717 361.63672386 104.30388718 360.53542028 102.8515625 357.9765625 C101.04980037 355.96595976 99.16622968 354.20387484 97.125 352.4375 C96.44824219 351.81037109 95.77148438 351.18324219 95.07421875 350.53710938 C93.40480618 348.9970175 91.71560603 347.4881944 90 346 C88.45802548 346.97868179 86.91644929 347.95799116 85.375 348.9375 C84.35921875 349.57945312 83.3434375 350.22140625 82.296875 350.8828125 C80.14302193 352.26597407 78.00644348 353.67651713 75.890625 355.1171875 C35.31818804 382.39195972 -17.50312341 392.42170282 -65.4765625 383.50048828 C-101.48630491 376.35846313 -133.82392803 360.89550511 -160.859375 335.953125 C-162.59341258 334.37097392 -164.34699382 332.89053119 -166.1875 331.4375 C-169.85824195 328.25619031 -172.87708548 324.71039348 -176 321 C-176.76441406 320.1234375 -177.52882812 319.246875 -178.31640625 318.34375 C-205.35934582 286.85713491 -222.82452174 244.72947834 -224 203 C-224.02578125 202.23236328 -224.0515625 201.46472656 -224.078125 200.67382812 C-225.62230388 148.75081332 -208.92344592 98.97645374 -173.4609375 60.58984375 C-172.64882812 59.73519531 -171.83671875 58.88054688 -171 58 C-170.52723633 57.50000488 -170.05447266 57.00000977 -169.56738281 56.48486328 C-126.15757697 10.86989477 -61.90378468 -9.22635765 0 0 Z M-64 39 C-64.79905762 39.20399414 -65.59811523 39.40798828 -66.42138672 39.61816406 C-94.3453652 46.98379018 -118.01705227 60.18467947 -139 80 C-139.79792969 80.73347656 -140.59585938 81.46695313 -141.41796875 82.22265625 C-162.77843039 102.56433593 -175.78556971 129.74063206 -183 158 C-183.27118652 159.06130127 -183.27118652 159.06130127 -183.54785156 160.14404297 C-190.05087056 187.1451467 -186.7349438 216.94959112 -178 243 C-177.64292969 244.0828125 -177.28585938 245.165625 -176.91796875 246.28125 C-168.98444784 268.48389509 -155.80645198 287.61370932 -139 304 C-138.40316406 304.64195312 -137.80632812 305.28390625 -137.19140625 305.9453125 C-130.79625011 312.68076136 -123.7127123 317.89877434 -116 323 C-115.40944824 323.39219727 -114.81889648 323.78439453 -114.21044922 324.18847656 C-94.79246916 336.89900926 -71.196554 345.93401605 -48 348 C-47.26410645 348.06558105 -46.52821289 348.13116211 -45.77001953 348.19873047 C-1.79482805 351.84801502 39.4767612 338.52237307 73.125 310.1875 C104.55264589 282.97081899 123.17764665 244.5868627 126.60351562 203.2421875 C129.46386672 159.87557407 114.40545577 120.13205219 86.6484375 87.2109375 C74.16478704 73.01132134 58.66240522 61.80727133 42 53 C41.0409375 52.46890625 40.081875 51.9378125 39.09375 51.390625 C9.17525807 35.44505513 -31.13300323 30.60173756 -64 39 Z " fill="#5953F9" transform="translate(227,5)"/>
<path d="M0 0 C0.66 0 1.32 0 2 0 C2.06469482 0.8343457 2.12938965 1.66869141 2.19604492 2.52832031 C5.07261751 38.42992152 12.87575187 70.53875115 37.4375 98.12109375 C38.95700121 99.8282163 40.44875843 101.56188295 41.875 103.34765625 C61.2749433 127.20785437 93.3843293 139.61975731 123 144 C123.87914062 144.13148438 124.75828125 144.26296875 125.6640625 144.3984375 C135.68426013 145.57541309 145.92773273 145.08663456 156 145 C154.59611789 149.21164632 151.63958161 150.27932608 147.9375 152.3125 C146.86363037 152.90635498 146.86363037 152.90635498 145.76806641 153.51220703 C130.87888349 161.53146299 114.9396022 166.16190874 98 167 C96.81857422 167.07927734 96.81857422 167.07927734 95.61328125 167.16015625 C69.25256163 168.11195617 43.14328373 158.8001167 23 142 C22.06542969 141.22914063 21.13085938 140.45828125 20.16796875 139.6640625 C-1.07757308 121.30078299 -13.46774468 94.37117889 -15.53710938 66.53881836 C-17.04839289 42.91029317 -12.46051811 20.34482825 0 0 Z " fill="#5953F9" transform="translate(96,146)"/>
</svg>
